<mxfile host="Electron" agent="Mozilla/5.0 (Windows NT 10.0; Win64; x64) AppleWebKit/537.36 (KHTML, like Gecko) draw.io/28.2.5 Chrome/138.0.7204.251 Electron/37.6.1 Safari/537.36" version="28.2.5">
  <diagram name="Página-1" id="2ykKOhRb827uNPMWWXLv">
    <mxGraphModel dx="1650" dy="1068" grid="1" gridSize="10" guides="1" tooltips="1" connect="1" arrows="1" fold="1" page="0" pageScale="1" pageWidth="827" pageHeight="1169" math="0" shadow="0">
      <root>
        <mxCell id="0" />
        <mxCell id="1" parent="0" />
        <mxCell id="5omY7BXxZTOx3mo_U6uF-1" value="Usuario" style="swimlane;fontStyle=0;childLayout=stackLayout;horizontal=1;startSize=30;fillColor=none;horizontalStack=0;resizeParent=1;resizeParentMax=0;resizeLast=0;collapsible=1;marginBottom=0;whiteSpace=wrap;html=1;" parent="1" vertex="1">
          <mxGeometry x="280" y="-30" width="140" height="130" as="geometry" />
        </mxCell>
        <mxCell id="5omY7BXxZTOx3mo_U6uF-2" value="+ id : int" style="text;strokeColor=none;fillColor=none;align=left;verticalAlign=top;spacingLeft=4;spacingRight=4;overflow=hidden;rotatable=0;points=[[0,0.5],[1,0.5]];portConstraint=eastwest;whiteSpace=wrap;html=1;" parent="5omY7BXxZTOx3mo_U6uF-1" vertex="1">
          <mxGeometry y="30" width="140" height="26" as="geometry" />
        </mxCell>
        <mxCell id="5omY7BXxZTOx3mo_U6uF-3" value="+ nombre: string" style="text;strokeColor=none;fillColor=none;align=left;verticalAlign=top;spacingLeft=4;spacingRight=4;overflow=hidden;rotatable=0;points=[[0,0.5],[1,0.5]];portConstraint=eastwest;whiteSpace=wrap;html=1;" parent="5omY7BXxZTOx3mo_U6uF-1" vertex="1">
          <mxGeometry y="56" width="140" height="26" as="geometry" />
        </mxCell>
        <mxCell id="5omY7BXxZTOx3mo_U6uF-4" value="+ email: string&lt;div&gt;+ password: string&lt;/div&gt;" style="text;strokeColor=none;fillColor=none;align=left;verticalAlign=top;spacingLeft=4;spacingRight=4;overflow=hidden;rotatable=0;points=[[0,0.5],[1,0.5]];portConstraint=eastwest;whiteSpace=wrap;html=1;" parent="5omY7BXxZTOx3mo_U6uF-1" vertex="1">
          <mxGeometry y="82" width="140" height="48" as="geometry" />
        </mxCell>
        <mxCell id="5omY7BXxZTOx3mo_U6uF-5" value="Libro" style="swimlane;fontStyle=0;childLayout=stackLayout;horizontal=1;startSize=26;fillColor=none;horizontalStack=0;resizeParent=1;resizeParentMax=0;resizeLast=0;collapsible=1;marginBottom=0;whiteSpace=wrap;html=1;" parent="1" vertex="1">
          <mxGeometry x="-100" y="70" width="140" height="136" as="geometry" />
        </mxCell>
        <mxCell id="5omY7BXxZTOx3mo_U6uF-6" value="+ isbn: string" style="text;strokeColor=none;fillColor=none;align=left;verticalAlign=top;spacingLeft=4;spacingRight=4;overflow=hidden;rotatable=0;points=[[0,0.5],[1,0.5]];portConstraint=eastwest;whiteSpace=wrap;html=1;" parent="5omY7BXxZTOx3mo_U6uF-5" vertex="1">
          <mxGeometry y="26" width="140" height="26" as="geometry" />
        </mxCell>
        <mxCell id="5omY7BXxZTOx3mo_U6uF-7" value="+ titulo: string" style="text;strokeColor=none;fillColor=none;align=left;verticalAlign=top;spacingLeft=4;spacingRight=4;overflow=hidden;rotatable=0;points=[[0,0.5],[1,0.5]];portConstraint=eastwest;whiteSpace=wrap;html=1;" parent="5omY7BXxZTOx3mo_U6uF-5" vertex="1">
          <mxGeometry y="52" width="140" height="26" as="geometry" />
        </mxCell>
        <mxCell id="5omY7BXxZTOx3mo_U6uF-8" value="+año:int" style="text;strokeColor=none;fillColor=none;align=left;verticalAlign=top;spacingLeft=4;spacingRight=4;overflow=hidden;rotatable=0;points=[[0,0.5],[1,0.5]];portConstraint=eastwest;whiteSpace=wrap;html=1;" parent="5omY7BXxZTOx3mo_U6uF-5" vertex="1">
          <mxGeometry y="78" width="140" height="32" as="geometry" />
        </mxCell>
        <mxCell id="5omY7BXxZTOx3mo_U6uF-9" value="+genero:string" style="text;strokeColor=none;fillColor=none;align=left;verticalAlign=top;spacingLeft=4;spacingRight=4;overflow=hidden;rotatable=0;points=[[0,0.5],[1,0.5]];portConstraint=eastwest;whiteSpace=wrap;html=1;" parent="5omY7BXxZTOx3mo_U6uF-5" vertex="1">
          <mxGeometry y="110" width="140" height="26" as="geometry" />
        </mxCell>
        <mxCell id="VNSNl1KwazOMOxekDJLB-20" style="edgeStyle=orthogonalEdgeStyle;rounded=0;orthogonalLoop=1;jettySize=auto;html=1;endArrow=block;endFill=0;" edge="1" parent="1" source="5omY7BXxZTOx3mo_U6uF-10">
          <mxGeometry relative="1" as="geometry">
            <mxPoint x="390" y="100" as="targetPoint" />
          </mxGeometry>
        </mxCell>
        <mxCell id="5omY7BXxZTOx3mo_U6uF-10" value="Socio" style="swimlane;fontStyle=1;align=center;verticalAlign=top;childLayout=stackLayout;horizontal=1;startSize=26;horizontalStack=0;resizeParent=1;resizeParentMax=0;resizeLast=0;collapsible=1;marginBottom=0;whiteSpace=wrap;html=1;" parent="1" vertex="1">
          <mxGeometry x="170" y="188" width="160" height="52" as="geometry" />
        </mxCell>
        <mxCell id="5omY7BXxZTOx3mo_U6uF-14" value="Administrador" style="swimlane;fontStyle=1;align=center;verticalAlign=top;childLayout=stackLayout;horizontal=1;startSize=26;horizontalStack=0;resizeParent=1;resizeParentMax=0;resizeLast=0;collapsible=1;marginBottom=0;whiteSpace=wrap;html=1;" parent="1" vertex="1">
          <mxGeometry x="490" y="160" width="160" height="130" as="geometry" />
        </mxCell>
        <mxCell id="5omY7BXxZTOx3mo_U6uF-15" value="+fechaAltaAdim: Data" style="text;strokeColor=none;fillColor=none;align=left;verticalAlign=top;spacingLeft=4;spacingRight=4;overflow=hidden;rotatable=0;points=[[0,0.5],[1,0.5]];portConstraint=eastwest;whiteSpace=wrap;html=1;" parent="5omY7BXxZTOx3mo_U6uF-14" vertex="1">
          <mxGeometry y="26" width="160" height="34" as="geometry" />
        </mxCell>
        <mxCell id="5omY7BXxZTOx3mo_U6uF-16" value="" style="line;strokeWidth=1;fillColor=none;align=left;verticalAlign=middle;spacingTop=-1;spacingLeft=3;spacingRight=3;rotatable=0;labelPosition=right;points=[];portConstraint=eastwest;strokeColor=inherit;" parent="5omY7BXxZTOx3mo_U6uF-14" vertex="1">
          <mxGeometry y="60" width="160" height="70" as="geometry" />
        </mxCell>
        <mxCell id="5omY7BXxZTOx3mo_U6uF-18" value="Ejemplar" style="swimlane;fontStyle=0;childLayout=stackLayout;horizontal=1;startSize=26;fillColor=none;horizontalStack=0;resizeParent=1;resizeParentMax=0;resizeLast=0;collapsible=1;marginBottom=0;whiteSpace=wrap;html=1;" parent="1" vertex="1">
          <mxGeometry x="-90" y="310" width="140" height="104" as="geometry" />
        </mxCell>
        <mxCell id="5omY7BXxZTOx3mo_U6uF-19" value="+ códigoInventario" style="text;strokeColor=none;fillColor=none;align=left;verticalAlign=top;spacingLeft=4;spacingRight=4;overflow=hidden;rotatable=0;points=[[0,0.5],[1,0.5]];portConstraint=eastwest;whiteSpace=wrap;html=1;" parent="5omY7BXxZTOx3mo_U6uF-18" vertex="1">
          <mxGeometry y="26" width="140" height="26" as="geometry" />
        </mxCell>
        <mxCell id="5omY7BXxZTOx3mo_U6uF-20" value="+ estado: string" style="text;strokeColor=none;fillColor=none;align=left;verticalAlign=top;spacingLeft=4;spacingRight=4;overflow=hidden;rotatable=0;points=[[0,0.5],[1,0.5]];portConstraint=eastwest;whiteSpace=wrap;html=1;" parent="5omY7BXxZTOx3mo_U6uF-18" vertex="1">
          <mxGeometry y="52" width="140" height="26" as="geometry" />
        </mxCell>
        <mxCell id="5omY7BXxZTOx3mo_U6uF-21" value="+ ubicación&amp;nbsp;" style="text;strokeColor=none;fillColor=none;align=left;verticalAlign=top;spacingLeft=4;spacingRight=4;overflow=hidden;rotatable=0;points=[[0,0.5],[1,0.5]];portConstraint=eastwest;whiteSpace=wrap;html=1;" parent="5omY7BXxZTOx3mo_U6uF-18" vertex="1">
          <mxGeometry y="78" width="140" height="26" as="geometry" />
        </mxCell>
        <mxCell id="VNSNl1KwazOMOxekDJLB-6" style="rounded=0;orthogonalLoop=1;jettySize=auto;html=1;" edge="1" parent="1" source="5omY7BXxZTOx3mo_U6uF-22" target="5omY7BXxZTOx3mo_U6uF-30">
          <mxGeometry relative="1" as="geometry" />
        </mxCell>
        <mxCell id="VNSNl1KwazOMOxekDJLB-18" style="rounded=0;orthogonalLoop=1;jettySize=auto;html=1;entryX=1;entryY=0.5;entryDx=0;entryDy=0;edgeStyle=orthogonalEdgeStyle;endArrow=oval;endFill=0;" edge="1" parent="1" source="5omY7BXxZTOx3mo_U6uF-22" target="5omY7BXxZTOx3mo_U6uF-19">
          <mxGeometry relative="1" as="geometry" />
        </mxCell>
        <mxCell id="5omY7BXxZTOx3mo_U6uF-22" value="Prestamo" style="swimlane;fontStyle=0;childLayout=stackLayout;horizontal=1;startSize=26;fillColor=none;horizontalStack=0;resizeParent=1;resizeParentMax=0;resizeLast=0;collapsible=1;marginBottom=0;whiteSpace=wrap;html=1;" parent="1" vertex="1">
          <mxGeometry x="180" y="350" width="140" height="78" as="geometry" />
        </mxCell>
        <mxCell id="5omY7BXxZTOx3mo_U6uF-23" value="+ IdePréstamo" style="text;strokeColor=none;fillColor=none;align=left;verticalAlign=top;spacingLeft=4;spacingRight=4;overflow=hidden;rotatable=0;points=[[0,0.5],[1,0.5]];portConstraint=eastwest;whiteSpace=wrap;html=1;" parent="5omY7BXxZTOx3mo_U6uF-22" vertex="1">
          <mxGeometry y="26" width="140" height="26" as="geometry" />
        </mxCell>
        <mxCell id="5omY7BXxZTOx3mo_U6uF-24" value="+ fechaInicio" style="text;strokeColor=none;fillColor=none;align=left;verticalAlign=top;spacingLeft=4;spacingRight=4;overflow=hidden;rotatable=0;points=[[0,0.5],[1,0.5]];portConstraint=eastwest;whiteSpace=wrap;html=1;" parent="5omY7BXxZTOx3mo_U6uF-22" vertex="1">
          <mxGeometry y="52" width="140" height="26" as="geometry" />
        </mxCell>
        <mxCell id="VNSNl1KwazOMOxekDJLB-17" style="edgeStyle=orthogonalEdgeStyle;rounded=0;orthogonalLoop=1;jettySize=auto;html=1;entryX=1;entryY=0.5;entryDx=0;entryDy=0;" edge="1" parent="1" source="5omY7BXxZTOx3mo_U6uF-26" target="5omY7BXxZTOx3mo_U6uF-23">
          <mxGeometry relative="1" as="geometry">
            <mxPoint x="450" y="389" as="targetPoint" />
          </mxGeometry>
        </mxCell>
        <mxCell id="5omY7BXxZTOx3mo_U6uF-26" value="Reserva" style="swimlane;fontStyle=0;childLayout=stackLayout;horizontal=1;startSize=26;fillColor=none;horizontalStack=0;resizeParent=1;resizeParentMax=0;resizeLast=0;collapsible=1;marginBottom=0;whiteSpace=wrap;html=1;" parent="1" vertex="1">
          <mxGeometry x="500" y="337" width="140" height="104" as="geometry" />
        </mxCell>
        <mxCell id="5omY7BXxZTOx3mo_U6uF-27" value="+ idReserva" style="text;strokeColor=none;fillColor=none;align=left;verticalAlign=top;spacingLeft=4;spacingRight=4;overflow=hidden;rotatable=0;points=[[0,0.5],[1,0.5]];portConstraint=eastwest;whiteSpace=wrap;html=1;" parent="5omY7BXxZTOx3mo_U6uF-26" vertex="1">
          <mxGeometry y="26" width="140" height="26" as="geometry" />
        </mxCell>
        <mxCell id="5omY7BXxZTOx3mo_U6uF-28" value="+ fechaReserva" style="text;strokeColor=none;fillColor=none;align=left;verticalAlign=top;spacingLeft=4;spacingRight=4;overflow=hidden;rotatable=0;points=[[0,0.5],[1,0.5]];portConstraint=eastwest;whiteSpace=wrap;html=1;" parent="5omY7BXxZTOx3mo_U6uF-26" vertex="1">
          <mxGeometry y="52" width="140" height="26" as="geometry" />
        </mxCell>
        <mxCell id="5omY7BXxZTOx3mo_U6uF-29" value="+ estado" style="text;strokeColor=none;fillColor=none;align=left;verticalAlign=top;spacingLeft=4;spacingRight=4;overflow=hidden;rotatable=0;points=[[0,0.5],[1,0.5]];portConstraint=eastwest;whiteSpace=wrap;html=1;" parent="5omY7BXxZTOx3mo_U6uF-26" vertex="1">
          <mxGeometry y="78" width="140" height="26" as="geometry" />
        </mxCell>
        <mxCell id="5omY7BXxZTOx3mo_U6uF-30" value="Penalizacíón" style="swimlane;fontStyle=1;align=center;verticalAlign=top;childLayout=stackLayout;horizontal=1;startSize=26;horizontalStack=0;resizeParent=1;resizeParentMax=0;resizeLast=0;collapsible=1;marginBottom=0;whiteSpace=wrap;html=1;" parent="1" vertex="1">
          <mxGeometry x="180" y="490" width="160" height="112" as="geometry" />
        </mxCell>
        <mxCell id="5omY7BXxZTOx3mo_U6uF-31" value="+ motivoPena" style="text;strokeColor=none;fillColor=none;align=left;verticalAlign=top;spacingLeft=4;spacingRight=4;overflow=hidden;rotatable=0;points=[[0,0.5],[1,0.5]];portConstraint=eastwest;whiteSpace=wrap;html=1;" parent="5omY7BXxZTOx3mo_U6uF-30" vertex="1">
          <mxGeometry y="26" width="160" height="26" as="geometry" />
        </mxCell>
        <mxCell id="5omY7BXxZTOx3mo_U6uF-32" value="" style="line;strokeWidth=1;fillColor=none;align=left;verticalAlign=middle;spacingTop=-1;spacingLeft=3;spacingRight=3;rotatable=0;labelPosition=right;points=[];portConstraint=eastwest;strokeColor=inherit;" parent="5omY7BXxZTOx3mo_U6uF-30" vertex="1">
          <mxGeometry y="52" width="160" height="8" as="geometry" />
        </mxCell>
        <mxCell id="5omY7BXxZTOx3mo_U6uF-33" value="+ diasPena" style="text;strokeColor=none;fillColor=none;align=left;verticalAlign=top;spacingLeft=4;spacingRight=4;overflow=hidden;rotatable=0;points=[[0,0.5],[1,0.5]];portConstraint=eastwest;whiteSpace=wrap;html=1;" parent="5omY7BXxZTOx3mo_U6uF-30" vertex="1">
          <mxGeometry y="60" width="160" height="26" as="geometry" />
        </mxCell>
        <mxCell id="5omY7BXxZTOx3mo_U6uF-38" value="+ penaActiva" style="text;strokeColor=none;fillColor=none;align=left;verticalAlign=top;spacingLeft=4;spacingRight=4;overflow=hidden;rotatable=0;points=[[0,0.5],[1,0.5]];portConstraint=eastwest;whiteSpace=wrap;html=1;" parent="5omY7BXxZTOx3mo_U6uF-30" vertex="1">
          <mxGeometry y="86" width="160" height="26" as="geometry" />
        </mxCell>
        <mxCell id="VNSNl1KwazOMOxekDJLB-1" style="rounded=0;orthogonalLoop=1;jettySize=auto;html=1;entryX=1.02;entryY=0.089;entryDx=0;entryDy=0;entryPerimeter=0;edgeStyle=orthogonalEdgeStyle;" edge="1" parent="1" source="5omY7BXxZTOx3mo_U6uF-1" target="5omY7BXxZTOx3mo_U6uF-7">
          <mxGeometry relative="1" as="geometry" />
        </mxCell>
        <mxCell id="VNSNl1KwazOMOxekDJLB-3" style="rounded=0;orthogonalLoop=1;jettySize=auto;html=1;entryX=0.606;entryY=1.033;entryDx=0;entryDy=0;entryPerimeter=0;" edge="1" parent="1" source="5omY7BXxZTOx3mo_U6uF-18" target="5omY7BXxZTOx3mo_U6uF-9">
          <mxGeometry relative="1" as="geometry" />
        </mxCell>
        <mxCell id="VNSNl1KwazOMOxekDJLB-5" style="rounded=0;orthogonalLoop=1;jettySize=auto;html=1;entryX=0.63;entryY=0.017;entryDx=0;entryDy=0;entryPerimeter=0;dashed=1;" edge="1" parent="1" source="5omY7BXxZTOx3mo_U6uF-14" target="5omY7BXxZTOx3mo_U6uF-26">
          <mxGeometry relative="1" as="geometry" />
        </mxCell>
        <mxCell id="VNSNl1KwazOMOxekDJLB-8" value="1,0" style="text;strokeColor=none;align=center;fillColor=none;html=1;verticalAlign=middle;whiteSpace=wrap;rounded=0;" vertex="1" parent="1">
          <mxGeometry x="220" y="280" width="60" height="30" as="geometry" />
        </mxCell>
        <mxCell id="VNSNl1KwazOMOxekDJLB-9" value="1,1" style="text;strokeColor=none;align=center;fillColor=none;html=1;verticalAlign=middle;whiteSpace=wrap;rounded=0;" vertex="1" parent="1">
          <mxGeometry x="120" y="370" width="60" height="30" as="geometry" />
        </mxCell>
        <mxCell id="VNSNl1KwazOMOxekDJLB-10" value="1" style="text;strokeColor=none;align=center;fillColor=none;html=1;verticalAlign=middle;whiteSpace=wrap;rounded=0;" vertex="1" parent="1">
          <mxGeometry x="180" y="428" width="60" height="30" as="geometry" />
        </mxCell>
        <mxCell id="VNSNl1KwazOMOxekDJLB-11" value="1" style="text;strokeColor=none;align=center;fillColor=none;html=1;verticalAlign=middle;whiteSpace=wrap;rounded=0;" vertex="1" parent="1">
          <mxGeometry x="250" y="438" width="60" height="30" as="geometry" />
        </mxCell>
        <mxCell id="VNSNl1KwazOMOxekDJLB-12" value="1" style="text;strokeColor=none;align=center;fillColor=none;html=1;verticalAlign=middle;whiteSpace=wrap;rounded=0;" vertex="1" parent="1">
          <mxGeometry x="300" y="400" width="60" height="30" as="geometry" />
        </mxCell>
        <mxCell id="VNSNl1KwazOMOxekDJLB-13" value="1" style="text;strokeColor=none;align=center;fillColor=none;html=1;verticalAlign=middle;whiteSpace=wrap;rounded=0;" vertex="1" parent="1">
          <mxGeometry x="420" y="400" width="60" height="30" as="geometry" />
        </mxCell>
        <mxCell id="VNSNl1KwazOMOxekDJLB-19" style="edgeStyle=orthogonalEdgeStyle;rounded=0;orthogonalLoop=1;jettySize=auto;html=1;entryX=0.8;entryY=0.994;entryDx=0;entryDy=0;entryPerimeter=0;endArrow=block;endFill=0;" edge="1" parent="1" source="5omY7BXxZTOx3mo_U6uF-14" target="5omY7BXxZTOx3mo_U6uF-4">
          <mxGeometry relative="1" as="geometry" />
        </mxCell>
        <mxCell id="VNSNl1KwazOMOxekDJLB-21" value="1,1" style="text;strokeColor=none;align=center;fillColor=none;html=1;verticalAlign=middle;whiteSpace=wrap;rounded=0;" vertex="1" parent="1">
          <mxGeometry x="-10" y="240" width="60" height="30" as="geometry" />
        </mxCell>
        <mxCell id="VNSNl1KwazOMOxekDJLB-22" style="edgeStyle=orthogonalEdgeStyle;rounded=0;orthogonalLoop=1;jettySize=auto;html=1;entryX=0;entryY=0.25;entryDx=0;entryDy=0;endArrow=none;endFill=0;" edge="1" parent="1" target="5omY7BXxZTOx3mo_U6uF-26">
          <mxGeometry relative="1" as="geometry">
            <mxPoint x="330" y="233" as="sourcePoint" />
          </mxGeometry>
        </mxCell>
        <mxCell id="VNSNl1KwazOMOxekDJLB-23" value="1,0" style="text;strokeColor=none;align=center;fillColor=none;html=1;verticalAlign=middle;whiteSpace=wrap;rounded=0;" vertex="1" parent="1">
          <mxGeometry x="400" y="280" width="60" height="30" as="geometry" />
        </mxCell>
        <mxCell id="VNSNl1KwazOMOxekDJLB-24" style="edgeStyle=orthogonalEdgeStyle;rounded=0;orthogonalLoop=1;jettySize=auto;html=1;entryX=0.507;entryY=1.031;entryDx=0;entryDy=0;entryPerimeter=0;endArrow=none;endFill=0;" edge="1" parent="1" source="5omY7BXxZTOx3mo_U6uF-29" target="5omY7BXxZTOx3mo_U6uF-21">
          <mxGeometry relative="1" as="geometry">
            <Array as="points">
              <mxPoint x="570" y="690" />
              <mxPoint x="-19" y="690" />
            </Array>
          </mxGeometry>
        </mxCell>
        <mxCell id="VNSNl1KwazOMOxekDJLB-25" value="1,1" style="text;strokeColor=none;align=center;fillColor=none;html=1;verticalAlign=middle;whiteSpace=wrap;rounded=0;" vertex="1" parent="1">
          <mxGeometry x="270" y="700" width="60" height="30" as="geometry" />
        </mxCell>
        <mxCell id="VNSNl1KwazOMOxekDJLB-27" style="edgeStyle=orthogonalEdgeStyle;rounded=0;orthogonalLoop=1;jettySize=auto;html=1;entryX=-0.009;entryY=0.088;entryDx=0;entryDy=0;entryPerimeter=0;endArrow=none;endFill=0;" edge="1" parent="1" target="5omY7BXxZTOx3mo_U6uF-38">
          <mxGeometry relative="1" as="geometry">
            <mxPoint x="170" y="225" as="sourcePoint" />
            <Array as="points">
              <mxPoint x="100" y="225" />
              <mxPoint x="100" y="578" />
            </Array>
          </mxGeometry>
        </mxCell>
        <mxCell id="VNSNl1KwazOMOxekDJLB-28" value="1,0" style="text;strokeColor=none;align=center;fillColor=none;html=1;verticalAlign=middle;whiteSpace=wrap;rounded=0;" vertex="1" parent="1">
          <mxGeometry x="50" y="468" width="60" height="30" as="geometry" />
        </mxCell>
        <mxCell id="VNSNl1KwazOMOxekDJLB-29" value="Bibliotecario" style="swimlane;fontStyle=1;align=center;verticalAlign=top;childLayout=stackLayout;horizontal=1;startSize=26;horizontalStack=0;resizeParent=1;resizeParentMax=0;resizeLast=0;collapsible=1;marginBottom=0;whiteSpace=wrap;html=1;" vertex="1" parent="1">
          <mxGeometry x="700" y="160" width="160" height="96" as="geometry" />
        </mxCell>
        <mxCell id="VNSNl1KwazOMOxekDJLB-32" style="edgeStyle=orthogonalEdgeStyle;rounded=0;orthogonalLoop=1;jettySize=auto;html=1;entryX=1.022;entryY=0.267;entryDx=0;entryDy=0;entryPerimeter=0;endArrow=block;endFill=0;" edge="1" parent="1" source="VNSNl1KwazOMOxekDJLB-29" target="5omY7BXxZTOx3mo_U6uF-4">
          <mxGeometry relative="1" as="geometry" />
        </mxCell>
        <mxCell id="5omY7BXxZTOx3mo_U6uF-12" value="" style="line;strokeWidth=1;fillColor=none;align=left;verticalAlign=middle;spacingTop=-1;spacingLeft=3;spacingRight=3;rotatable=0;labelPosition=right;points=[];portConstraint=eastwest;strokeColor=inherit;" parent="1" vertex="1">
          <mxGeometry x="170" y="240" width="160" height="8" as="geometry" />
        </mxCell>
        <mxCell id="VNSNl1KwazOMOxekDJLB-26" value="+fechaAlta: Data" style="text;strokeColor=none;fillColor=none;align=left;verticalAlign=top;spacingLeft=4;spacingRight=4;overflow=hidden;rotatable=0;points=[[0,0.5],[1,0.5]];portConstraint=eastwest;whiteSpace=wrap;html=1;" vertex="1" parent="1">
          <mxGeometry x="170" y="214" width="160" height="26" as="geometry" />
        </mxCell>
        <mxCell id="VNSNl1KwazOMOxekDJLB-34" style="edgeStyle=orthogonalEdgeStyle;rounded=0;orthogonalLoop=1;jettySize=auto;html=1;exitX=0.5;exitY=0;exitDx=0;exitDy=0;entryX=0.361;entryY=1.017;entryDx=0;entryDy=0;entryPerimeter=0;" edge="1" parent="1" source="5omY7BXxZTOx3mo_U6uF-22" target="5omY7BXxZTOx3mo_U6uF-12">
          <mxGeometry relative="1" as="geometry" />
        </mxCell>
      </root>
    </mxGraphModel>
  </diagram>
</mxfile>
